HIERARCHY
ROOT Hips
{
	OFFSET 0.00000 0.00000 0.00000
	CHANNELS 6 Xposition Yposition Zposition Yrotation Zrotation Xrotation 
	JOINT Lumbar
	{
		OFFSET 0 0 0
		CHANNELS 3 Zrotation Xrotation Yrotation
		JOINT Neck
		{
			OFFSET 0.00 0.2701 0.00
			CHANNELS 3 Zrotation Xrotation Yrotation
			End Site
			{
				OFFSET 0.00 0.1379 0.00
			}
		}
		JOINT RightShoulder
		{
			OFFSET 0.0119 0.2289 0.1181
			CHANNELS 3 Zrotation Xrotation Yrotation
			JOINT RightElbow
			{
				OFFSET 0.00 -0.1475 0.00
				CHANNELS 2 Zrotation Yrotation
				JOINT RightWrist
				{
					OFFSET 0.00 -0.1605 0.00
					CHANNELS 2 Zrotation Xrotation
					End Site
					{
						OFFSET 0.0040 -0.1068 0.0006
					}
				}
			}
		}
		JOINT LeftShoulder
		{
			OFFSET 0.0119 0.2289 -0.1181
			CHANNELS 3 Zrotation Xrotation Yrotation
			JOINT LeftElbow
			{
				OFFSET 0.00 -0.1475 0.00
				CHANNELS 2 Zrotation Yrotation
				JOINT LeftWrist
				{
					OFFSET 0.00 -0.1605 0.00
					CHANNELS 2 Zrotation Xrotation
					End Site
					{
						OFFSET 0.0040 -0.1068 -0.0006
					}
				}
			}
		}
	}
	JOINT RightHip
	{
		OFFSET 0.0316 -0.0424 0.0458
		CHANNELS 3 Zrotation Xrotation Yrotation
		JOINT RightKnee
		{
			OFFSET 0.00 -0.2438 0.00
			CHANNELS 1 Zrotation
			JOINT RightAnkle
			{
				OFFSET 0.00 -0.2449 0.00
				CHANNELS 3 Zrotation Xrotation Yrotation
				End Site
				{
					OFFSET 0.1237 -0.0542 0.0051
				}
			}
		}
	}
	JOINT LeftHip
	{
		OFFSET 0.0316 -0.0424 -0.0458
		CHANNELS 3 Zrotation Xrotation Yrotation
		JOINT LeftKnee
		{
			OFFSET 0.00 -0.2438 0.00
			CHANNELS 1 Zrotation
			JOINT LeftAnkle
			{
				OFFSET 0.00 -0.2449 0.00
				CHANNELS 3 Zrotation Xrotation Yrotation
				End Site
				{
					OFFSET 0.1237 -0.0542 -0.0051
				}
			}
		}
	}
}
MOTION
Frames: 33
Frame Time: 0.02
0.00128 -0.01323 0.16058 -565.43096 -28.33661 -0.83212 23.76464 8.45387 3.68687 -6.86958 1.30167 -2.11894 0.63056 -12.4999 -7.33116 21.63911 87.04274 -4.40678 1.33655 166.38682 155.76477 87.14611 8.62963 -76.04873 -74.75702 17.14261 56.1769 -16.34966 -2.99286 -38.56075 -12.6393 -3.25837 -4.12649 37.94886 -3.01479 21.0844 -28.40694 -5.89648 2.3604 3.34737
0.0028 -0.01332 0.16226 -565.12827 -28.77433 -0.54036 23.1369 8.93407 3.63383 -6.75392 1.08271 -2.11898 1.01866 -12.46198 -7.39344 21.75045 86.93012 -4.67544 0.91713 166.38684 155.60507 87.14621 9.56611 -74.78235 -74.82594 17.83489 56.72358 -16.73763 -3.00722 -38.24604 -12.7076 -3.23989 -4.12143 38.6196 -3.36568 21.24787 -28.32055 -5.90905 2.33587 3.33595
0.00427 -0.01339 0.16396 -564.89598 -29.26832 -0.25175 22.56672 9.39797 3.74789 -6.68121 0.93494 -2.11901 1.33825 -12.42413 -7.39829 21.86517 86.83808 -4.91237 0.51656 166.38686 155.51191 87.14635 10.61257 -72.78155 -74.94085 18.98922 57.41262 -17.17561 -3.14994 -38.00342 -12.79091 -3.20523 -4.10904 39.36939 -3.71738 21.38204 -28.25252 -5.92493 2.32032 3.32912
0.00574 -0.01348 0.16563 -564.63317 -29.72598 0.03683 21.97481 9.86583 3.7899 -6.59976 0.75691 -2.11904 1.67983 -12.38281 -7.44049 21.96667 86.72957 -5.16228 0.11408 166.38688 155.39282 87.14647 11.5975 -71.17831 -75.03098 19.89449 58.0244 -17.5795 -3.20874 -37.7349 -12.8666 -3.17962 -4.10076 40.06765 -4.06432 21.53367 -28.1782 -5.93886 2.30041 3.32004
0.00733 -0.01354 0.16741 -564.36368 -30.23022 0.33232 21.36051 10.34912 3.81446 -6.47358 0.56698 -2.11907 2.06077 -12.35867 -7.42345 22.12363 86.65284 -5.41601 -0.31674 166.3869 155.25475 87.14661 12.63549 -69.31498 -75.13668 20.95621 58.68981 -18.02917 -3.36996 -37.43455 -12.94592 -3.14751 -4.08953 40.83366 -4.43067 21.6668 -28.0944 -5.95476 2.28181 3.31169
0.00864 -0.01365 0.16895 -564.12499 -30.65005 0.6121 20.80895 10.79579 3.91454 -6.45028 0.42018 -2.11911 2.34258 -12.29791 -7.52045 22.16551 86.51555 -5.65533 -0.68451 166.38692 155.1721 87.14672 13.58813 -67.81383 -75.22127 21.80594 59.27621 -18.39747 -3.35547 -37.21862 -13.02071 -3.12461 -4.08244 41.47592 -4.75629 21.83109 -28.03483 -5.96733 2.26257 3.3029
0.00922 -0.01388 0.16984 -563.95452 -30.82678 0.85268 20.40429 11.14853 4.19342 -6.70266 0.37166 -2.11913 2.3748 -12.13422 -7.94781 21.86409 86.18842 -5.85989 -0.8758 166.38692 155.2284 87.14674 14.26965 -67.51248 -75.23524 21.94628 59.62057 -18.51254 -2.76109 -37.21974 -13.08491 -3.1339 -4.09019 41.76526 -4.97108 22.09905 -28.04016 -5.96958 2.23918 3.29159
0.0095 -0.01414 0.17047 -563.81264 -30.91581 1.07686 20.06364 11.46422 4.54069 -7.05636 0.36502 -2.11915 2.30836 -11.93394 -8.49234 21.45003 85.80237 -6.05166 -1.00528 166.38692 155.33763 87.14674 14.86245 -67.59628 -75.22669 21.86041 59.87859 -18.54674 -1.99607 -37.30358 -13.1431 -3.1525 -4.10205 41.92559 -5.1443 22.39809 -28.06896 -5.96841 2.21483 3.2797
0.0099 -0.01438 0.1712 -563.65748 -31.04239 1.30623 19.7018 11.79477 4.84971 -7.36255 0.34198 -2.11918 2.28204 -11.75076 -8.9853 21.10271 85.45444 -6.25163 -1.16778 166.38692 155.42165 87.14675 15.5006 -67.48947 -75.22928 21.8864 60.16894 -18.62926 -1.3521 -37.34878 -13.2003 -3.16483 -4.11085 42.13954 -5.33537 22.67585 -28.0855 -5.969 2.19106 3.26822
0.01036 -0.01465 0.172 -563.50592 -31.18062 1.545 19.30771 12.1334 5.19504 -7.67753 0.31071 -2.1192 2.27266 -11.56425 -9.47312 20.69055 85.0597 -6.44117 -1.30961 166.38692 155.51393 87.14675 16.12102 -67.42256 -75.22967 21.89028 60.49316 -18.66632 -0.5337 -37.40037 -13.2734 -3.18488 -4.12425 42.37764 -5.53135 22.98117 -28.10925 -5.96884 2.16711 3.25633
0.01064 -0.01487 0.1726 -563.3528 -31.27307 1.76041 18.99633 12.44623 5.47848 -7.99636 0.30505 -2.11922 2.20619 -11.37773 -9.99504 20.38595 84.7478 -6.64885 -1.47905 166.38692 155.59933 87.14676 16.7564 -67.37402 -75.22867 21.88031 60.72479 -18.77616 -0.03046 -37.45801 -13.3122 -3.19168 -4.12937 42.53348 -5.70665 23.23886 -28.12352 -5.96939 2.14305 3.24501
0.01047 -0.01491 0.17271 -563.18763 -31.25978 1.9148 18.88851 12.70024 5.57661 -8.31232 0.36435 -2.11922 2.00003 -11.18506 -10.62834 20.41109 84.68212 -6.91834 -1.74871 166.38692 155.66461 87.14678 17.44846 -67.28142 -75.22935 21.88709 60.71848 -19.12454 -0.49052 -37.50655 -13.25382 -3.15617 -4.10863 42.49554 -5.83982 23.33982 -28.10414 -5.97277 2.12029 3.23617
0.01013 -0.0149 0.17262 -563.01974 -31.20322 2.04637 18.86312 12.92899 5.60901 -8.62632 0.44682 -2.11922 1.74121 -10.99654 -11.28389 20.54727 84.70099 -7.20516 -2.04674 166.38693 155.71879 87.14681 18.15862 -67.1979 -75.22919 21.88547 60.6219 -19.54561 -1.26386 -37.55916 -13.16176 -3.10768 -4.07979 42.37848 -5.95286 23.39475 -28.07466 -5.97698 2.09722 3.22778
0.00986 -0.01491 0.17262 -562.85322 -31.16684 2.18873 18.80574 13.16721 5.6689 -8.93362 0.5153 -2.11923 1.51108 -10.81587 -11.89925 20.6293 84.67923 -7.47848 -2.32607 166.38693 155.76968 87.14683 18.86489 -67.11417 -75.22922 21.88565 60.56819 -19.92122 -1.85895 -37.613 -13.08764 -3.06754 -4.05602 42.29615 -6.07181 23.48302 -28.05081 -5.98082 2.0733 3.21862
0.0096 -0.01492 0.17264 -562.68705 -31.12565 2.32869 18.72761 13.41272 5.74053 -9.27659 0.59972 -2.11923 1.25786 -10.59243 -12.64479 20.72335 84.6654 -7.77478 -2.62773 166.38694 155.85681 87.14685 19.55245 -67.02649 -75.22934 21.88685 60.50377 -20.34558 -2.59785 -37.65613 -13.00225 -3.01756 -4.02662 42.21481 -6.20243 23.52179 -28.02331 -5.98455 2.05331 3.21171
0.00928 -0.01493 0.17257 -562.51927 -31.08485 2.46851 18.71136 13.63742 5.77217 -9.54341 0.65609 -2.11923 1.04091 -10.46 -13.12403 20.8197 84.65507 -8.02786 -2.89045 166.38694 155.86615 87.14687 20.28116 -66.94472 -75.22933 21.88667 60.4413 -20.68787 -3.11605 -37.72225 -12.93232 -2.98462 -4.00684 42.11397 -6.30516 23.64997 -28.00082 -5.98871 2.02534 3.20035
0.00886 -0.01495 0.17228 -562.34641 -31.06003 2.61291 18.8461 13.81181 5.70023 -9.60045 0.62727 -2.11923 0.94315 -10.57388 -12.85312 20.9 84.64148 -8.15419 -3.0387 166.38694 155.6541 87.14686 21.14705 -66.87242 -75.22931 21.88656 60.40646 -20.77553 -2.92868 -37.84355 -12.91426 -3.00411 -4.01686 41.98171 -6.33024 24.05637 -27.99359 -5.99412 1.97327 3.17551
0.00839 -0.01497 0.17192 -562.17221 -31.03669 2.75809 19.03979 13.96607 5.59154 -9.58048 0.56956 -2.11923 0.88328 -10.77998 -12.31503 20.97843 84.62748 -8.23699 -3.14701 166.38693 155.36551 87.14684 22.04882 -66.80473 -75.22926 21.88611 60.37702 -20.78011 -2.51237 -37.98871 -12.91279 -3.04077 -4.03661 41.83262 -6.32915 24.55042 -27.99181 -5.9999 1.91359 3.14637
0.00793 -0.01499 0.17159 -561.99921 -31.01032 2.90344 19.20606 14.12918 5.5055 -9.59517 0.52627 -2.11923 0.80224 -10.94686 -11.90427 21.05517 84.6087 -8.34198 -3.27402 166.38693 155.11789 87.14683 22.91642 -66.73608 -75.22922 21.88571 60.34547 -20.83021 -2.21511 -38.12746 -12.90309 -3.06802 -4.05104 41.68987 -6.34399 24.99103 -27.9881 -6.00535 1.85877 3.11987
0.00749 -0.015 0.17124 -561.82324 -30.99248 3.04599 19.37828 14.29292 5.3926 -9.61099 0.47849 -2.11923 0.73506 -11.10311 -11.46766 21.14649 84.61325 -8.43775 -3.39997 166.38692 154.84418 87.14681 23.86055 -66.66322 -75.22918 21.88532 60.30948 -20.85123 -1.86733 -38.24807 -12.895 -3.10147 -4.06891 41.54982 -6.3413 25.48753 -27.98178 -6.01151 1.79796 3.09048
0.00701 -0.01503 0.17093 -561.65368 -30.95763 3.19457 19.55055 14.45058 5.32714 -9.60656 0.43273 -2.11924 0.64984 -11.30256 -11.02333 21.20547 84.56874 -8.54173 -3.51789 166.38692 154.60633 87.1468 24.65289 -66.60003 -75.22914 21.88498 60.28494 -20.91062 -1.56379 -38.41158 -12.88809 -3.12643 -4.08212 41.40116 -6.36887 25.88897 -27.9823 -6.01626 1.74788 3.0661
0.00642 -0.01514 0.17076 -561.49777 -30.8774 3.36214 19.7122 14.59909 5.40734 -9.56169 0.40074 -2.11924 0.49611 -11.60549 -10.60377 21.17598 84.38226 -8.68262 -3.6266 166.38692 154.49003 87.14679 25.0231 -66.56209 -75.22913 21.88492 60.29392 -21.10925 -1.4598 -38.69159 -12.87936 -3.12213 -4.07923 41.23416 -6.48901 26.00713 -28.00035 -6.0173 1.72866 3.05638
0.00579 -0.01527 0.17063 -561.34925 -30.78008 3.53531 19.87086 14.74173 5.53585 -9.4997 0.37149 -2.11924 0.32489 -11.94729 -10.189 21.11341 84.14731 -8.83247 -3.7278 166.38692 154.41178 87.1468 25.23825 -66.53371 -75.22914 21.88495 60.31426 -21.34666 -1.40326 -39.01299 -12.87157 -3.10902 -4.07151 41.05951 -6.64002 26.02675 -28.02512 -6.01688 1.7206 3.05189
0.00519 -0.01539 0.17049 -561.2001 -30.68927 3.7045 20.02795 14.8855 5.63883 -9.44781 0.34003 -2.11924 0.16818 -12.26702 -9.7847 21.06516 83.93837 -8.97586 -3.83027 166.38692 154.31373 87.1468 25.52041 -66.50107 -75.22914 21.88494 60.32759 -21.55741 -1.30862 -39.31314 -12.86421 -3.10108 -4.06663 40.88759 -6.77546 26.09118 -28.04688 -6.01696 1.70785 3.04517
0.00456 -0.0155 0.17035 -561.03901 -30.60294 3.88015 20.19909 15.03531 5.75547 -9.38357 0.31138 -2.11924 -0.01479 -12.60914 -9.31821 21.01982 83.71237 -9.12804 -3.94066 166.38692 154.22374 87.1468 25.81805 -66.46822 -75.22914 21.88493 60.34829 -21.80323 -1.27353 -39.62531 -12.85389 -3.08891 -4.05939 40.7171 -6.91695 26.15824 -28.0687 -6.01769 1.69327 3.03771
0.00399 -0.01563 0.1702 -560.90504 -30.50429 4.0432 20.34 15.17108 5.85578 -9.34185 0.27824 -2.11924 -0.14792 -12.91195 -8.98525 20.96068 83.51074 -9.2643 -4.033 166.38692 154.12681 87.1468 26.04663 -66.43802 -75.22914 21.88494 60.35698 -21.98656 -1.13172 -39.92086 -12.84961 -3.08311 -4.05575 40.54341 -7.05289 26.19562 -28.09186 -6.01675 1.68518 3.03307
0.00359 -0.01577 0.17002 -560.84004 -30.36458 4.17395 20.39163 15.27255 5.89754 -9.36804 0.22924 -2.11924 -0.13737 -13.10201 -9.02674 20.87063 83.3851 -9.35724 -4.07998 166.38692 154.00333 87.1468 26.11797 -66.41263 -75.22914 21.88494 60.32184 -21.98561 -0.65715 -40.16979 -12.86312 -3.09801 -4.06381 40.34926 -7.17149 26.17155 -28.11728 -6.01124 1.69283 3.03504
0.00327 -0.01592 0.16982 -560.80277 -30.21393 4.29102 20.41266 15.35963 5.92145 -9.41762 0.17631 -2.11924 -0.07661 -13.24969 -9.2026 20.76804 83.28621 -9.43351 -4.10878 166.38692 153.87157 87.1468 26.12585 -66.38957 -75.22914 21.88495 60.27427 -21.92118 -0.07937 -40.39871 -12.88234 -3.11937 -4.07552 40.15336 -7.28256 26.121 -28.14354 -6.00414 1.70657 3.03966
0.00292 -0.01606 0.16962 -560.75559 -30.07716 4.41195 20.45317 15.45138 5.95512 -9.45584 0.12713 -2.11924 -0.04017 -13.41284 -9.31363 20.67177 83.17712 -9.5158 -4.14438 166.38692 153.74269 87.1468 26.16548 -66.36553 -75.22914 21.88495 60.23938 -21.88782 0.43241 -40.63052 -12.89796 -3.13703 -4.08514 39.969 -7.39352 26.0848 -28.16951 -5.99796 1.71722 3.043
0.00253 -0.01622 0.16945 -560.69758 -29.90715 4.54344 20.47496 15.55078 5.98449 -9.49637 0.06964 -2.11924 0.0021 -13.59346 -9.44014 20.57161 83.05813 -9.60504 -4.18583 166.38692 153.61877 87.1468 26.18727 -66.34152 -75.22914 21.88496 60.18105 -21.84675 1.02239 -40.88998 -12.91784 -3.15755 -4.0964 39.74481 -7.52031 26.03641 -28.19617 -5.99089 1.72961 3.04684
0.00223 -0.01634 0.16923 -560.66824 -29.79777 4.64911 20.52241 15.63093 6.01668 -9.538 0.02861 -2.11924 0.0443 -13.72702 -9.56683 20.47716 82.96671 -9.67561 -4.21089 166.38692 153.48216 87.1468 26.23338 -66.31783 -75.22914 21.88497 60.16112 -21.80571 1.47576 -41.08656 -12.93025 -3.17386 -4.10522 39.59598 -7.61212 26.00719 -28.22043 -5.98533 1.73969 3.05019
0.00214 -0.01629 0.16888 -560.71479 -29.91505 4.69127 20.70311 15.66129 6.07231 -9.57614 0.03298 -2.11925 0.07477 -13.74159 -9.65651 20.40047 82.9455 -9.69974 -4.19521 166.38692 153.31181 87.1468 26.36078 -66.29478 -75.22914 21.88497 60.31678 -21.78391 1.51671 -41.11402 -12.92022 -3.17603 -4.10589 39.7221 -7.60725 26.04826 -28.24755 -5.98426 1.74188 3.05153
0.00213 -0.01619 0.16849 -560.78866 -30.08549 4.7072 20.90252 15.67275 6.12938 -9.61485 0.05413 -2.11925 0.10341 -13.71 -9.74237 20.3304 82.95126 -9.7054 -4.16367 166.38692 153.12906 87.1468 26.51571 -66.27189 -75.22914 21.88498 60.50176 -21.76334 1.419 -41.07877 -12.90263 -3.17395 -4.10409 39.9145 -7.56756 26.1082 -28.27081 -5.98479 1.74152 3.05227
